{"accessors" : [{"bufferView" : 0, "byteOffset" : 0, "componentType" : 5123, "count" : 300, "type" : "SCALAR", "max" : [250], "min" : [0]}, {"bufferView" : 1, "byteOffset" : 0, "componentType" : 5126, "count" : 251, "type" : "VEC3", "max" : [1, 1, 1], "min" : [-1, -1, -1], "name" : "POSITION"}, {"bufferView" : 1, "byteOffset" : 12, "componentType" : 5126, "count" : 251, "type" : "VEC3", "max" : [1.0000044107437134, 1.0000044107437134, 1.0000044107437134], "min" : [-1.0000044107437134, -1.0000044107437134, -1.0000044107437134], "name" : "NORMAL"}, {"bufferView" : 1, "byteOffset" : 24, "componentType" : 5126, "count" : 251, "type" : "VEC2", "max" : [0.875, 1], "min" : [0.125, 0], "name" : "TEXCOORD_0"}, {"bufferView" : 0, "byteOffset" : 600, "componentType" : 5123, "count" : 12, "type" : "SCALAR", "max" : [9], "min" : [0]}, {"bufferView" : 2, "byteOffset" : 0, "componentType" : 5126, "count" : 10, "type" : "VEC3", "max" : [0.715530514717102, 1, 1], "min" : [0.715530514717102, -0.6820272207260132, -1], "name" : "POSITION"}, {"bufferView" : 2, "byteOffset" : 12, "componentType" : 5126, "count" : 10, "type" : "VEC3", "max" : [1.0000044107437134, 0, -0], "min" : [-1.0000044107437134, 0, -0], "name" : "NORMAL"}, {"bufferView" : 2, "byteOffset" : 24, "componentType" : 5126, "count" : 10, "type" : "VEC2", "max" : [0.625, 0.5], "min" : [0.41474658250808716, 0.25], "name" : "TEXCOORD_0"}], "asset" : {"generator" : "Aspose.3D 21.11", "version" : "2.0"}, "buffers" : [{"uri" : "data:application/octet-stream;base64,", "byteLength" : 10620}], "bufferViews" : [{"buffer" : 0, "byteOffset" : 0, "byteLength" : 624, "target" : 34963}, {"buffer" : 0, "byteOffset" : 628, "byteLength" : 9600, "byteStride" : 32, "target" : 34962}, {"buffer" : 0, "byteOffset" : 10232, "byteLength" : 384, "byteStride" : 32, "target" : 34962}], "materials" : [{"name" : "base", "pbrMetallicRoughness" : {"baseColorFactor" : [0.01875436119735241, 0.013864526525139809, 0.01661158725619316, 1], "metallicFactor" : 0, "roughnessFactor" : 0.5}, "emissiveFactor" : [0, 0, 0], "alphaMode" : "OPAQUE", "doubleSided" : true}, {"name" : "inside", "pbrMetallicRoughness" : {"baseColorFactor" : [0.4019683003425598, 0.37587445974349976, 0.3873446583747864, 0.190476194024086], "metallicFactor" : 0, "roughnessFactor" : 0.5}, "emissiveFactor" : [0, 0, 0], "alphaMode" : "BLEND", "doubleSided" : true}], "meshes" : [{"primitives" : [{"attributes" : {"POSITION" : 1, "NORMAL" : 2, "TEXCOORD_0" : 3}, "indices" : 0, "material" : 0, "mode" : 4}, {"attributes" : {"POSITION" : 5, "NORMAL" : 6, "TEXCOORD_0" : 7}, "indices" : 4, "material" : 1, "mode" : 4}]}], "nodes" : [{"matrix" : [2.2198012887462104, 0.0890156642013428, -0.018400309359529368, 0, 0.05766167772828365, -1.4394619491259035, -0.007456122578218827, 0, 0.01194598678518869, -0.006815579809662222, 1.4081841230939969, 0, -0.10726653039455414, 1.8165311813354492, -0.24931876361370087, 1], "mesh" : 0, "name" : "Cube"}], "scene" : 0, "scenes" : [{"nodes" : [0]}]}